<svg width="1014" height="326" viewBox="0 0 1014 326" fill="none" xmlns="http://www.w3.org/2000/svg">
<path d="M786.77 125.35H790.77C790.579 125.745 790.365 126.129 790.13 126.5C787.34 130.215 784.991 134.242 783.13 138.5C781.56 142.315 780.526 146.33 780.06 150.43C779.512 156.073 780.268 161.766 782.27 167.07C782.408 167.378 782.561 167.678 782.73 167.97C783.21 165.07 783.64 162.48 784.08 159.89C784.661 155.935 786.268 152.201 788.74 149.06C792.27 144.7 796.74 142.06 802.49 142.45C811.14 143 817.29 149.78 816.49 158.45C816.176 160.419 815.319 162.261 814.015 163.77C812.711 165.279 811.013 166.394 809.11 166.99C807.401 167.287 805.641 167.005 804.11 166.19C803.24 165.82 802.4 165.37 801.35 164.87C801.264 166.045 801.264 167.225 801.35 168.4C802.58 176.31 806.98 181.74 814.35 184.85C816.18 185.63 817.98 186.47 819.78 187.3C820.221 187.532 820.648 187.789 821.06 188.07C819.5 189.99 817.51 190.61 810.06 191.52C811.939 192.302 813.938 192.755 815.97 192.86C827.07 193.65 836.7 189.96 845.15 182.99C847.297 181.056 849.343 179.014 851.28 176.87L851 176.47C850.54 176.69 850.07 176.89 849.62 177.12C845.86 179.17 841.873 180.775 837.74 181.9C833.936 182.982 829.893 182.878 826.15 181.6C820.53 179.51 817.27 175.29 815.97 169.6C815.444 167.458 815.437 165.221 815.948 163.074C816.459 160.928 817.475 158.935 818.91 157.26C820.141 155.747 821.726 154.561 823.524 153.806C825.322 153.051 827.278 152.75 829.22 152.93C830.14 153.022 831.029 153.316 831.823 153.792C832.616 154.267 833.295 154.912 833.81 155.68C835.162 157.386 835.889 159.503 835.87 161.68C835.87 162.68 835.87 163.68 835.87 164.97C836.435 164.818 836.993 164.638 837.54 164.43C842.42 162.32 845.13 158.43 846.36 153.43C846.937 151.013 847.272 148.544 847.36 146.06C847.48 143.06 847.22 140.06 847.13 137.06C847.13 136.52 847.13 135.98 847.13 135.11C851.4 136.5 853.6 139.76 856.06 142.79C855.451 139.578 854.211 136.519 852.41 133.79C850.73 131.03 848.79 128.44 846.81 125.55H851.5C853.3 128.48 855.27 131.45 857 134.55C859.405 138.888 860.981 143.635 861.65 148.55C862.27 153.295 862.05 158.112 861 162.78C859.695 168.683 857.176 174.25 853.602 179.126C850.027 184.002 845.477 188.08 840.24 191.101C835.003 194.122 829.194 196.018 823.184 196.671C817.173 197.323 811.093 196.717 805.33 194.89C800.118 193.092 795.301 190.308 791.14 186.69C785.564 181.877 781.271 175.754 778.65 168.87C776.545 163.547 775.587 157.839 775.84 152.12C776.192 143.764 779.08 135.714 784.12 129.04C785.06 127.83 785.91 126.57 786.77 125.35Z" fill="black"/>
<path d="M713.26 44.07C714.9 44.94 716.26 45.66 717.68 46.41C726.023 50.937 734.853 54.5031 744 57.04C751.337 58.9559 758.794 60.3824 766.32 61.31C771.55 62.05 776.82 62.47 782.08 62.94C786.38 63.32 790.7 63.53 795 63.87C805.93 64.73 816.88 64.47 827.82 64.42C833.1 64.42 838.38 64.09 843.66 63.82C848.48 63.58 853.3 63.3 858.11 62.89C862.31 62.53 866.51 62.09 870.68 61.45C876.68 60.52 882.74 59.58 888.68 58.27C896.36 56.6511 903.831 54.1652 910.95 50.86C915.04 48.86 919.07 46.86 923.12 44.86C923.43 44.7 923.76 44.61 924.38 44.37C924.145 45.9856 923.811 47.5852 923.38 49.16C922.19 52.67 920.9 56.16 919.55 59.61C919.125 60.6269 918.467 61.5292 917.627 62.2434C916.788 62.9576 915.792 63.4635 914.72 63.72C908.658 65.6706 902.47 67.2074 896.2 68.32C890.74 69.24 885.2 69.94 879.74 70.61C875.56 71.11 871.35 71.43 867.15 71.8C865.49 71.95 863.81 72.04 862.15 72.11C859.35 72.24 856.55 72.28 853.76 72.46C846.4 72.95 839.03 73.07 831.65 73.09C823.96 73.09 816.28 73.31 808.59 73.33C803.97 73.33 799.34 73.22 794.71 73.03C789.43 72.82 784.16 72.47 778.88 72.17C776.96 72.07 775.03 71.98 773.1 71.83C768.49 71.47 763.88 71.18 759.29 70.65C754.143 70.0633 749.01 69.3433 743.89 68.49C738.97 67.67 734.09 66.63 729.2 65.66C728.107 65.4317 727.031 65.1277 725.98 64.75C723.427 63.9027 721.133 62.4156 719.318 60.4305C717.503 58.4454 716.226 56.0284 715.61 53.41C714.83 50.62 714.13 47.8 713.41 44.99C713.337 44.6876 713.287 44.38 713.26 44.07Z" fill="black"/>
<path d="M732.05 69.31C733.5 69.46 734.54 69.55 735.58 69.68C741.83 70.46 748.07 71.3 754.33 72.03C758.02 72.45 761.72 72.71 765.41 73.03C770.223 73.4433 775.033 73.8367 779.84 74.21C781.66 74.35 783.49 74.46 785.32 74.53C788.32 74.66 791.42 74.79 794.47 74.86C800.37 74.99 806.27 75.06 812.17 75.19C815.48 75.26 818.78 75.47 822.08 75.45C827.833 75.45 833.583 75.3467 839.33 75.14C843.65 75.02 847.96 74.78 852.28 74.53C856.89 74.27 861.51 74 866.11 73.61C870.92 73.21 875.72 72.67 880.52 72.18C884.52 71.76 888.61 71.36 892.64 70.89C896.83 70.4 901.01 69.82 905.2 69.28C905.39 69.28 905.58 69.28 905.9 69.28C904.9 74.04 903.61 78.56 899.63 81.72C897.697 83.2467 895.39 84.2273 892.95 84.56C889.09 85.12 885.18 85.45 881.29 85.86C878.41 86.16 875.53 86.44 872.65 86.7C870.88 86.85 869.1 86.96 867.32 87.05C864.58 87.18 861.84 87.3 859.09 87.38C851.67 87.6 844.25 87.79 836.83 87.99C836.17 87.99 835.52 87.99 834.62 87.99V82.78C834 82.66 833.62 82.55 833.24 82.51C832.86 82.47 832.42 82.51 832.01 82.51L805.9 82.22C805.25 82.22 804.6 82.28 803.7 82.33V87.78C802.92 87.86 802.38 87.97 801.85 87.97C798.38 87.97 794.92 87.97 791.46 87.97C787.85 87.92 784.24 87.81 780.63 87.67C776.41 87.5 772.19 87.37 767.99 87.04C763.18 86.66 758.37 86.17 753.59 85.57C749.86 85.1 746.14 84.5 742.46 83.75C737.67 82.75 734.7 79.75 733.4 75.03C732.91 73.27 732.55 71.48 732.05 69.31Z" fill="black"/>
<path d="M865 98.21H880.17C880.33 99.37 880.56 100.41 880.61 101.46C880.77 104.46 880.81 107.46 880.97 110.46C881.23 115.33 881.55 120.2 881.84 125.06C881.95 126.94 882.08 128.82 882.16 130.69C882.29 133.69 882.35 136.69 882.51 139.69C882.76 144.51 883.08 149.32 883.36 154.14C883.49 156.22 883.59 158.3 883.69 160.39C883.81 163.13 883.9 165.87 884.03 168.62C884.22 172.62 884.44 176.62 884.64 180.62C884.64 181.21 884.64 181.81 884.64 182.34C883.31 182.84 866.64 182.91 865.03 182.5C864.7 181.41 864.62 100.3 865 98.21Z" fill="black"/>
<path d="M758 98.19H772.94C773 98.95 773.1 99.64 773.1 100.32C773.1 113.51 773.1 126.7 773.1 139.9C773.1 153.44 773.27 166.98 773.36 180.52C773.36 181.22 773.29 181.93 773.25 182.78C772.755 182.909 772.25 182.996 771.74 183.04C766.14 183.04 760.537 183.04 754.93 183.04C754.48 183.009 754.032 182.949 753.59 182.86C753.59 181.34 753.59 179.86 753.59 178.44C753.59 177.68 753.74 176.92 753.77 176.16C754 170.83 754.19 165.49 754.44 160.16C754.6 156.5 754.84 152.85 755.03 149.16L756 131.08C756.19 127.42 756.41 123.77 756.6 120.08C756.91 114.08 757.2 108.08 757.54 102.08C757.59 100.9 757.8 99.64 758 98.19Z" fill="black"/>
<path d="M806.09 85.06H832C832.48 86.19 832.61 115.6 832.12 117.56C831.215 117.739 830.3 117.859 829.38 117.92C822.14 117.92 814.91 117.92 807.68 117.92C807.18 117.92 806.68 117.84 805.96 117.77C805.51 114.09 806.28 110.51 806.14 106.93C806 103.35 806.14 99.7 806.14 96.09L806.09 85.06Z" fill="black"/>
<path d="M819.19 134.98C813.46 130.7 807.35 129.04 800.45 131.27C796.437 132.656 792.71 134.76 789.45 137.48C788.99 137.84 788.51 138.18 787.93 138.61C788.03 134.78 790.81 127.85 793.21 125.34C793.67 125.34 794.21 125.26 794.77 125.26C806.243 125.26 817.707 125.26 829.16 125.26C830.492 125.234 831.808 125.551 832.982 126.182C834.156 126.812 835.147 127.735 835.86 128.86C837.798 131.72 838.611 135.197 838.14 138.62C837.74 142.51 836.49 146.04 833.5 148.81C831.642 150.577 829.272 151.712 826.73 152.05C823.03 152.54 819.49 152.13 816.45 149.72C815.13 148.744 814.043 147.487 813.268 146.039C812.493 144.592 812.05 142.99 811.97 141.35C811.86 138.52 813.36 136.66 816.38 135.65C817.32 135.36 818.26 135.2 819.19 134.98Z" fill="black"/>
<path d="M885.06 143.78C884.51 142.13 884.24 133.6 884.68 132.11C885.16 132.11 885.68 132 886.25 131.99C888.59 131.99 890.93 131.99 893.25 131.99C898.19 131.91 903.12 131.77 908.05 131.73C909.07 131.644 910.097 131.79 911.053 132.158C912.009 132.525 912.869 133.103 913.57 133.85C915.22 135.71 915.24 137.85 914.57 140.02C914.293 140.957 913.748 141.793 913.002 142.424C912.255 143.055 911.34 143.454 910.37 143.57C909.27 143.76 908.15 143.83 907.03 143.93C904.97 144.1 904.03 145.09 904.19 147.1C904.171 147.615 904.337 148.12 904.658 148.524C904.979 148.927 905.434 149.203 905.94 149.3C906.872 149.556 907.833 149.694 908.8 149.71C915.27 149.71 921.73 149.71 928.2 149.71C929.013 149.699 929.824 149.8 930.61 150.01C932.75 150.6 933.61 151.73 933.55 153.87C933.49 156.01 932.55 157.12 930.45 157.64C929.661 157.832 928.852 157.929 928.04 157.93C917.193 157.93 906.343 157.93 895.49 157.93C894.82 157.943 894.15 157.89 893.49 157.77C890 157.12 889.75 154.71 890.23 152.16C890.5 150.76 892.1 149.82 893.92 149.69C894.884 149.656 895.844 149.546 896.79 149.36C897.415 149.223 897.973 148.871 898.365 148.365C898.757 147.859 898.959 147.231 898.935 146.591C898.911 145.952 898.663 145.341 898.235 144.865C897.806 144.39 897.224 144.08 896.59 143.99C896.039 143.895 895.479 143.855 894.92 143.87C892.22 143.87 889.52 143.87 886.82 143.87C886.29 143.93 885.69 143.86 885.06 143.78Z" fill="black"/>
<path d="M753.05 148.08L752.19 159.69C750.66 159.84 749.26 160.09 747.86 160.1C741.79 160.16 735.73 160.15 729.67 160.1C728.77 160.1 727.874 159.993 727 159.78C725.599 159.439 724.385 158.568 723.612 157.35C722.84 156.132 722.571 154.663 722.86 153.25C723.49 149.84 724.86 148.55 728.34 148.15L731.07 147.86C731.709 147.804 732.311 147.536 732.779 147.097C733.247 146.658 733.554 146.074 733.65 145.44C733.728 144.793 733.569 144.14 733.201 143.603C732.832 143.066 732.281 142.681 731.65 142.52C730.674 142.242 729.665 142.098 728.65 142.09C722.38 142.09 716.11 142.09 709.85 142.09C709.23 142.09 708.62 142.09 708.01 142.09C705.8 141.95 704.43 140.8 704.29 138.99C704.07 136.3 704.96 134.9 707.42 134.41C709.017 134.09 710.641 133.92 712.27 133.9C721.95 133.847 731.617 133.847 741.27 133.9C742.39 133.907 743.507 134.034 744.6 134.28C745.553 134.496 746.39 135.062 746.945 135.866C747.501 136.669 747.734 137.652 747.6 138.62C747.532 139.545 747.125 140.413 746.457 141.057C745.789 141.701 744.907 142.076 743.98 142.11C742.98 142.21 741.98 142.29 740.98 142.46C740.387 142.503 739.832 142.77 739.427 143.206C739.023 143.642 738.798 144.215 738.8 144.81C738.67 146.34 739.15 147.22 740.5 147.68C741.083 147.859 741.69 147.943 742.3 147.93C745.2 147.93 748.11 147.93 751.01 147.93C751.64 147.93 752.23 148.01 753.05 148.08Z" fill="black"/>
<path d="M774.8 185.64V213.03C774.272 213.166 773.733 213.256 773.19 213.3C765.957 213.3 758.723 213.3 751.49 213.3C750.911 213.253 750.337 213.167 749.77 213.04C750.34 203.81 750.91 194.71 751.48 185.68C752.88 185.06 773.32 185.05 774.8 185.64Z" fill="black"/>
<path d="M863.3 212.93C863.24 203.68 863.3 194.61 863.3 185.65C864.75 185.14 884.57 185.06 886.23 185.44C886.92 186.87 888.59 211.1 888.07 212.93H863.3Z" fill="black"/>
<path d="M775.18 113.78H803.53C803.58 114.96 803.63 116.1 803.65 117.24C803.67 118.38 803.65 119.55 803.65 120.84H834.46V114.13C835.81 113.56 861.04 113.46 862.82 113.95V123.08C861.59 123.53 776.82 123.6 775.31 123.18C774.85 122.13 774.73 115.88 775.18 113.78Z" fill="black"/>
<path d="M817.79 248.16C818.26 246.37 818.71 244.92 819.02 243.43C819.358 242.239 819.254 240.967 818.729 239.846C818.203 238.726 817.291 237.832 816.16 237.33C815.221 236.824 814.236 236.405 813.22 236.08C811.501 235.646 809.947 234.719 808.748 233.413C807.549 232.107 806.757 230.479 806.47 228.73C805.4 223.27 806.69 218.44 811.02 214.66C812.77 213.237 814.911 212.379 817.16 212.2C819.382 211.833 821.66 212.008 823.8 212.71C829.05 214.58 831.43 218.71 832.36 223.86C833.36 229.29 831.54 234.1 828.53 238.52C825.921 242.246 822.575 245.398 818.7 247.78C818.5 247.87 818.26 247.94 817.79 248.16ZM818.33 223.26C818.987 223.186 819.601 222.896 820.077 222.437C820.552 221.978 820.863 221.374 820.96 220.72C820.857 219.985 820.501 219.308 819.954 218.807C819.406 218.305 818.701 218.009 817.96 217.97C817.628 217.969 817.299 218.037 816.994 218.17C816.69 218.303 816.416 218.498 816.191 218.743C815.966 218.987 815.795 219.276 815.688 219.591C815.581 219.905 815.541 220.239 815.57 220.57C815.583 221.291 815.88 221.979 816.397 222.482C816.914 222.986 817.608 223.265 818.33 223.26Z" fill="black"/>
<path d="M903.08 104.71L905.33 106.95C907.02 108.64 908.74 110.31 910.39 112.04C910.722 112.492 911.16 112.854 911.666 113.095C912.172 113.336 912.73 113.448 913.29 113.42C913.513 113.442 913.731 113.507 913.93 113.61C914.04 113.76 914.16 113.85 914.15 113.93C914.09 115.74 915.15 116.86 916.38 118.03C923.76 125.363 931.113 132.697 938.44 140.03C938.86 140.46 939.25 140.91 939.72 141.42C939.35 141.87 939.08 142.23 938.72 142.54C936.85 144.42 934.96 146.27 933.11 148.17C932.83 148.5 932.478 148.762 932.081 148.935C931.684 149.109 931.253 149.189 930.82 149.17C929.21 149.17 927.6 149.17 925.98 149.17L925.82 148.79L933.6 140.99L914.51 122.52L913.81 123.76H883.53C883.36 120.21 883.21 116.96 883.05 113.56C883.98 113.49 884.62 113.41 885.26 113.41H903.75C904.34 113.41 904.92 113.32 905.67 113.27C905.05 110.27 903.67 107.66 902.67 104.99L903.08 104.71Z" fill="black"/>
<path d="M734.46 104.62C733.38 107.49 732.3 110.37 731.1 113.62C733.32 113.74 735.22 113.67 737.1 113.69C738.98 113.71 741.1 113.69 743.1 113.69H754.8C755.48 117.08 754.5 120.26 754.72 123.38C753.26 123.89 725.44 123.92 724.02 123.47L723.67 121.78C723.2 122.2 722.83 122.5 722.5 122.83C719.58 125.74 716.62 128.62 713.77 131.6C713.282 132.177 712.667 132.632 711.972 132.929C711.278 133.226 710.524 133.356 709.77 133.31C708.147 133.35 706.53 133.507 704.93 133.78C705.48 133.18 705.83 132.78 706.2 132.4C711.667 126.92 717.137 121.443 722.61 115.97C723.18 115.4 723.61 114.74 724.25 113.97C724.83 113.49 725.62 112.97 726.25 112.28C728.55 110.03 730.8 107.75 733.07 105.48C733.42 105.13 733.8 104.8 734.17 104.48L734.46 104.62Z" fill="black"/>
<path d="M783.44 227.26C784.44 227.62 785.62 228.07 786.8 228.47C788.54 229.07 790.26 229.68 792.02 230.2C793.096 230.509 794.075 231.091 794.86 231.89C802.333 239.397 809.817 246.897 817.31 254.39C817.737 254.909 818.119 255.465 818.45 256.05C819.25 255.31 819.7 254.92 820.11 254.51C827.677 246.95 835.24 239.383 842.8 231.81C843.573 231.003 844.536 230.401 845.6 230.06C848.3 229.2 850.99 228.25 853.68 227.33L854.06 227.69L818.82 262.63L783.44 227.26Z" fill="black"/>
<path d="M775.28 221.42C776.65 221.22 777.7 221.1 778.74 220.91C781.12 220.48 782.05 219.3 781.93 216.91C781.844 216.16 781.797 215.405 781.79 214.65C782.05 210.43 785.99 208.19 789.61 207.87C791.786 207.652 793.961 208.292 795.672 209.653C797.382 211.015 798.494 212.991 798.77 215.16C799.059 217.029 798.745 218.941 797.872 220.619C797 222.297 795.616 223.653 793.92 224.49C789.97 226.68 785.92 226.43 781.82 225.03C779.443 224.225 777.228 223.003 775.28 221.42ZM794.16 214.64C794.174 214.183 794.009 213.739 793.701 213.401C793.394 213.063 792.966 212.858 792.51 212.83C792.032 212.871 791.583 213.074 791.235 213.405C790.888 213.736 790.664 214.175 790.6 214.65C790.625 215.132 790.822 215.588 791.157 215.935C791.491 216.282 791.94 216.497 792.42 216.54C792.661 216.535 792.898 216.481 793.118 216.382C793.337 216.283 793.534 216.14 793.697 215.963C793.859 215.785 793.984 215.576 794.064 215.349C794.144 215.121 794.176 214.88 794.16 214.64Z" fill="black"/>
<path d="M855.07 228.26C854.78 227.26 854.52 226.32 854.17 225.37C853.26 222.89 851.88 222.03 849.47 222.94C843.62 225.13 839.47 219.94 839.12 215.2C838.83 211.2 840.98 208.59 844.38 206.87C847.78 205.15 850.73 206.07 853.45 208.27C854.811 209.39 855.907 210.798 856.659 212.392C857.412 213.986 857.801 215.727 857.8 217.49C857.94 220.704 857.373 223.909 856.14 226.88C855.99 227.25 855.8 227.62 855.62 227.98C855.556 228.115 855.483 228.246 855.4 228.37L855.07 228.26ZM847.36 213.04C847.374 212.58 847.206 212.133 846.894 211.794C846.582 211.456 846.15 211.253 845.69 211.23C845.203 211.225 844.734 211.41 844.383 211.746C844.031 212.083 843.826 212.544 843.81 213.03C843.811 213.271 843.861 213.51 843.955 213.731C844.05 213.953 844.188 214.154 844.361 214.321C844.535 214.489 844.74 214.62 844.964 214.708C845.189 214.795 845.429 214.837 845.67 214.83C846.13 214.812 846.564 214.614 846.88 214.28C847.196 213.945 847.368 213.5 847.36 213.04Z" fill="black"/>
<path d="M697.1 141.78L703.36 135.6C703.36 136.33 703.36 137.26 703.36 138.18C703.322 138.894 703.444 139.608 703.718 140.269C703.991 140.93 704.409 141.521 704.94 142C709.46 146.48 713.963 150.977 718.45 155.49C721.95 158.99 725.45 162.49 728.91 166C729.567 166.694 730.078 167.514 730.41 168.41C731.41 170.93 732.2 173.5 733.08 176.05C733.24 176.51 733.37 176.99 733.51 177.46L733.14 177.76L697.1 141.78Z" fill="black"/>
<path d="M849.22 60.36C848.704 60.5363 848.171 60.6603 847.63 60.73C844.69 60.88 841.74 61.11 838.8 61.03C837.27 61.03 835.8 60.27 834.21 60.03C831.3 59.6 828.39 59.21 825.46 58.96C822.932 58.707 820.39 58.6135 817.85 58.68C814.77 58.8 811.69 59.17 808.61 59.53C806.253 59.7417 803.914 60.1193 801.61 60.66C799.372 61.3174 797.018 61.4811 794.71 61.14C792.96 60.86 791.16 60.89 789.39 60.77C788.967 60.7394 788.564 60.5748 788.24 60.3C788.61 59.9704 789.024 59.6943 789.47 59.48C792.96 58.41 796.47 57.21 799.98 56.41C803.49 55.61 807.27 55.17 810.98 54.68C812.336 54.6049 813.694 54.6049 815.05 54.68C815.76 54.68 816.47 54.57 817.17 54.56C818.39 54.56 819.6 54.56 820.82 54.56H823.82C824.018 54.5186 824.218 54.4919 824.42 54.48C827.82 54.94 831.22 55.35 834.61 55.91C837.2 56.33 839.78 56.91 842.34 57.5C843.7 57.84 844.99 58.5 846.34 58.96C847.34 59.32 848.34 59.62 849.34 59.96L849.22 60.36Z" fill="black"/>
<path d="M897.9 160.24H902.65C902.72 165.78 894.89 183.74 889.83 189.41C889.67 187.74 889.54 186.32 889.4 184.84L887.4 184.33C892.14 176.899 895.683 168.77 897.9 160.24Z" fill="black"/>
<path d="M751 184.44L748.41 184.76L748.17 189.23L747.72 189.33C742.095 181.152 737.93 172.061 735.41 162.46C737.238 162.229 739.086 162.202 740.92 162.38C743.25 170.162 746.642 177.585 751 184.44Z" fill="black"/>
<path d="M743.47 110.47H738.47C738.29 107.47 746.32 92.47 751.1 87.33C751.26 87.57 751.51 87.78 751.56 88.02C751.88 89.62 752.26 91.21 752.42 92.83C752.395 93.5228 752.177 94.1949 751.79 94.77C749.7 98.5 747.52 102.18 745.47 105.92C744.71 107.34 744.16 108.88 743.47 110.47Z" fill="black"/>
<path d="M803.82 41.39C803.48 41.76 803.16 42.14 802.82 42.5C799.22 46.1 795.65 49.72 792 53.27C791.257 53.9444 790.396 54.4765 789.46 54.84C786.69 56 783.88 57.06 781.09 58.15C780.961 58.208 780.821 58.2379 780.68 58.2379C780.539 58.2379 780.399 58.208 780.27 58.15C787.07 51.56 793.86 44.96 800.73 38.29C801.47 39.18 802.44 40.29 803.42 41.48L803.82 41.39Z" fill="black"/>
<path d="M885.3 92.69C885.7 90.91 886.1 89.15 886.52 87.34C889.63 89.47 898.91 105.75 899.52 109.9C898.012 110.434 896.378 110.504 894.83 110.1C893.43 107.22 892.08 104.21 890.51 101.33C888.94 98.45 887.09 95.66 885.3 92.69Z" fill="black"/>
<path d="M882.82 89.38C882.37 91.54 881.97 93.49 881.55 95.52H864.15C863.36 94.04 863.4 92.36 863.01 90.52L882.82 89.38Z" fill="black"/>
<path d="M856.67 58.21C853.46 57.03 850.5 55.97 847.56 54.85C847.046 54.6338 846.581 54.3176 846.19 53.92C842.37 50.12 838.557 46.31 834.75 42.49C834.416 42.1167 834.103 41.7261 833.81 41.32L836.64 38.69L856.67 58.21Z" fill="black"/>
<path d="M774.5 95.52H756.81L755.53 89.38L775 90.54C775.55 92.34 774.51 93.78 774.5 95.52Z" fill="black"/>
<path d="M920.91 159.85L903.78 176.98C903.95 176.48 904.18 175.79 904.42 175.11C905.12 173.11 905.78 171.05 906.55 169.06C906.86 168.212 907.324 167.429 907.92 166.75C909.77 164.75 911.74 162.94 913.62 161C913.978 160.603 914.421 160.292 914.917 160.091C915.412 159.89 915.947 159.804 916.48 159.84C918 159.89 919.47 159.85 920.91 159.85Z" fill="black"/>
<path d="M818.58 34.04C816.787 32.1056 815.266 29.9356 814.06 27.59C813.746 26.9099 813.654 26.1484 813.795 25.4129C813.937 24.6774 814.306 24.0049 814.85 23.49C815.57 22.72 816.42 22.08 817.22 21.37L818.61 22.15L819.8 21.51C819.93 21.51 820.13 21.51 820.22 21.59C821.253 22.4078 822.186 23.3442 823 24.38C823.486 25.2096 823.633 26.1948 823.41 27.13C822.55 29.78 820.62 31.78 818.58 34.04Z" fill="black"/>
<path d="M817.7 34.3C817.48 34.57 817.41 34.75 817.29 34.79C815.118 35.6011 812.905 36.2987 810.66 36.88C808.46 37.35 807.15 36.3 806.04 34.02C805.816 33.4638 805.632 32.8923 805.49 32.31L806.34 31.09L806.27 29.69C807.109 28.6186 808.286 27.864 809.61 27.55C810.277 27.3738 810.979 27.3733 811.647 27.5485C812.314 27.7237 812.925 28.0688 813.42 28.55C815.135 30.2338 816.579 32.1735 817.7 34.3Z" fill="black"/>
<path d="M827.57 44.94L826.28 45.32C825.769 45.8052 825.148 46.1588 824.47 46.3501C823.791 46.5414 823.077 46.5647 822.388 46.418C821.699 46.2713 821.055 45.959 820.514 45.5081C819.973 45.0572 819.549 44.4813 819.28 43.83C819.071 42.9968 818.976 42.1388 819 41.28C818.95 39.52 819 37.76 819 36.17C819.34 35.95 819.42 35.83 819.5 35.84C822.245 36.0268 824.898 36.9077 827.21 38.4C828.44 39.21 828.86 41.52 828.28 43.34C828.05 43.86 827.8 44.36 827.57 44.94Z" fill="black"/>
<path d="M818.13 35.88C818.13 38.41 818.29 40.79 818.13 43.14C818.011 44.0103 817.591 44.8114 816.942 45.4035C816.294 45.9956 815.458 46.3412 814.58 46.38C813.73 46.46 812.87 46.38 812.01 46.38L811.01 45.08L809.75 44.84C809.32 44.1715 809.037 43.4192 808.92 42.6331C808.803 41.847 808.854 41.0449 809.07 40.28C809.162 39.8702 809.334 39.4826 809.576 39.1394C809.818 38.7962 810.125 38.5042 810.48 38.28C812.64 37.28 814.93 36.59 817.18 35.81C817.36 35.69 817.69 35.83 818.13 35.88Z" fill="black"/>
<path d="M831 29.78L830.91 31.12L831.77 32.32C831.671 32.7872 831.544 33.248 831.39 33.7C830.39 36.14 829.01 37.34 826.39 36.96C824.007 36.5326 821.704 35.7435 819.56 34.62C819.716 34.2081 819.907 33.8101 820.13 33.43C821.03 32.14 821.92 30.83 822.91 29.6C825.14 26.72 828.42 26.78 831 29.78Z" fill="black"/>
<path d="M748.31 105.63L755.18 107.54V111.54C753.31 112.07 751.46 111.75 749.5 111.78C748.67 109.78 748.68 107.78 748.31 105.63Z" fill="black"/>
<path d="M889.85 105.61C889.52 107.69 889.21 109.61 888.85 111.61H883V107.54L889.85 105.61Z" fill="black"/>
<path d="M738.92 126.68L738.3 132.49H733.17C733.131 130.531 733.36 128.577 733.85 126.68H738.92Z" fill="black"/>
<path d="M804.49 220.17L804.08 225.57L797.31 224.18L800.67 219.41L804.49 220.17Z" fill="black"/>
<path d="M838.21 219.11L841.67 223.79L835 225.34C834.78 223.41 834.6 221.74 834.4 219.91L838.21 219.11Z" fill="black"/>
<path d="M780.29 111.68H775.11V107.78L780.87 106.23C780.68 108 780.5 109.72 780.29 111.68Z" fill="black"/>
<path d="M862.83 111.71H858C857.18 110.03 857.34 108.22 857.08 106.28L862.81 107.73L862.83 111.71Z" fill="black"/>
<path d="M904.13 126.65L904.58 130.34H899.82C899.67 129.15 899.53 127.98 899.36 126.65H904.13Z" fill="black"/>
<path d="M453.95 57.25C449.73 55.83 451.15 57.33 442.72 53.64C434.29 49.95 426.97 46.12 421.58 40.64V41.12C421.58 41.12 401.76 42.42 387.08 39.99C387.08 39.99 381.93 39.5 380.59 39.63C379.25 39.76 379.96 40.57 386.49 44.63C393.02 48.69 391.73 48.38 388.92 49.34C386.11 50.3 373.84 49.71 361.99 46.44C350.14 43.17 352.39 43.91 333.41 44.83C323.27 45.32 271.32 45.71 203.93 41.9C136.54 38.09 116.27 34.29 113.93 34.07C111.59 33.85 108.52 33.63 111.59 36.07C114.66 38.51 115.25 40.13 111.37 39.07C107.49 38.01 101.97 36.41 98.48 33.28C98.48 33.28 78.21 29.74 60.37 25.28C60.37 25.28 70.11 35.84 89.31 39.86C108.51 43.88 122.58 47.6 144.36 49.04C166.14 50.48 195.8 53.65 240.54 54.77C240.54 54.77 222.21 47.06 217.54 45.35C239.54 46.94 269.81 48.5 280.13 48.44C290.45 48.38 307.64 48.38 327.41 53.44C347.18 58.5 360.61 63.53 377.02 63.84C393.43 64.15 402.46 64.75 411.68 64.34C420.9 63.93 422.6 63.04 423.44 61.09C424.28 59.14 424.05 56.56 418.7 53.76C413.35 50.96 409.7 49.14 403.82 48.23C403.82 48.23 405.46 54.98 404.55 56.23C403.16 58.23 402.11 58.77 396.75 59.55C389.63 60.55 378.66 58.32 368.06 56.46C357.46 54.6 342.58 49.64 332.32 48.09C338.355 47.7374 344.411 48.0729 350.37 49.09C359.69 50.64 372.09 53.46 378.17 54.33C384.25 55.2 391.68 57.12 395.37 56.33C399.06 55.54 401.31 56.01 400.17 51.15C399.03 46.29 397.89 45.31 397.89 45.31C397.89 45.31 401.7 44.1 411.05 46.76C420.4 49.42 423.18 51.13 425.43 53.04C427.68 54.95 436.1 59.04 445.69 60.04C454.98 61.04 463.02 61.47 463.51 61.49C460.427 59.8539 457.232 58.4371 453.95 57.25Z" fill="black"/>
<path d="M213.02 56.66C198.44 55.92 138.1 52.2 118.25 49.66C98.4 47.12 81.17 43.91 67.87 37.87C54.57 31.83 52.09 27.88 47.17 21.68C40.23 19.68 32.71 17.42 26.01 15.39C37.17 26.62 43.83 35.96 61.53 41.53C79.23 47.1 83.58 49.53 115.17 52.38C146.76 55.23 229.33 61.82 258.49 61.14L248.99 57.53C248.99 57.53 227.6 57.4 213.02 56.66Z" fill="black"/>
<path d="M425.89 56.41C425.89 56.41 432.89 62.71 438.33 64.76C438.33 64.76 428.39 65.05 423.16 66.28C423.17 66.28 427.54 64.53 425.89 56.41Z" fill="black"/>
<path d="M240.56 49.29C240.56 49.29 254.13 55.61 263.63 57.81C274.024 60.3972 284.657 61.9019 295.36 62.3C308.45 62.79 317.66 63.17 336.27 62.91C336.27 62.91 322.21 58.91 309.37 56.27C296.53 53.63 289.57 52.53 281.67 53.33C283.898 56.0218 286.935 57.9227 290.33 58.75C283.729 58.7264 277.15 57.982 270.71 56.53C258.89 54.08 240.56 49.29 240.56 49.29Z" fill="black"/>
<path d="M456.69 30.26C456.576 30.305 456.466 30.3585 456.36 30.42C459.14 31.42 461.81 31.67 461.86 32.71C461.91 33.75 460.72 35.03 458.38 35.49C456.04 35.95 453.79 36.99 449.23 35.75C448.931 35.9128 448.616 36.0435 448.29 36.14C447.03 36.52 442.29 37.41 437 38.14C437 38.14 450.2 46.14 456.89 45.14C463.58 44.14 469.09 40.49 470.33 38C471.57 35.51 472.96 31.19 473.92 29.2C470.861 29.9722 467.692 30.219 464.55 29.93C460.29 31.19 458.22 29.69 456.69 30.26Z" fill="black"/>
<path d="M497.78 43.53C497.15 39.8 494.72 38.76 494.72 38.76C494.12 41.92 494.02 43.96 493.25 46.24C492.48 48.52 490.83 51.48 487.74 56.35C484.65 61.22 484.89 67.15 487.68 69.23C487.68 69.23 486.8 65.23 488.84 66.09C490.88 66.95 497.32 73.35 497.32 73.35L500.32 73.18C500.958 71.7227 501.818 70.3733 502.87 69.18C500.542 65.9374 498.389 62.5726 496.42 59.1C499.67 51.53 498.42 47.23 497.78 43.53Z" fill="black"/>
<path d="M514.29 47.26C515.11 51.42 516.29 61.11 516.29 61.11C517.024 61.5249 517.875 61.6866 518.71 61.57C518.616 58.6154 518.312 55.6713 517.8 52.76C516.97 47.78 514.29 47.26 514.29 47.26Z" fill="black"/>
<path d="M527.43 56.7C525.963 56.8742 524.599 57.5405 523.56 58.59L523.77 59.59C525.408 60.5799 526.966 61.6966 528.43 62.93C531.326 62.2147 534.322 62.0016 537.29 62.3C538.13 62.38 538.87 62.47 539.54 62.56C539.54 62.56 529.77 56.53 527.43 56.7Z" fill="black"/>
<path d="M521.24 48.73C531.11 46.88 532.24 41.91 531.63 38.31C530.485 38.4576 529.334 38.5478 528.18 38.58C527.84 46.93 522.03 48.53 521.24 48.73Z" fill="black"/>
<path d="M539.88 41.25C537.598 45.5195 534.377 49.2156 530.46 52.06C530.46 52.06 538.36 56.45 549.78 61.99L549.38 59.99C549.38 59.99 556.79 59.92 566.16 59.86C559.78 54.53 539.88 41.25 539.88 41.25Z" fill="black"/>
<path d="M570.94 59.59L571.24 59.81C579.75 59.81 588.99 59.74 595.52 59.81C583.9 50.48 574.09 44.81 566.36 39.87L542.09 40.31C548.48 44.27 566.56 56.13 570.94 59.59Z" fill="black"/>
<path d="M624.53 59.82C610.8 48.66 606.76 46.29 593.82 39.31L570.05 39.76C590.7 52.02 589.5 52.1 598.91 59.76H600.7C606.59 59.94 616.22 59.9 624.53 59.82Z" fill="black"/>
<path d="M599.03 39.21C615.71 48.89 618.65 51.21 628.45 59.79L638.01 59.68C639.53 57.91 640.08 55.68 638.46 50.59C636.84 45.5 635.17 42.59 622.85 38.41C621.08 38.59 619.52 38.71 618.27 38.76C615.62 38.85 608.25 39.02 599.03 39.21Z" fill="black"/>
<path d="M453.92 245.44C449.7 244.02 451.12 245.52 442.69 241.83C434.26 238.14 426.94 234.31 421.55 228.83V229.31C421.55 229.31 401.73 230.61 387.05 228.18C387.05 228.18 381.9 227.69 380.56 227.82C379.22 227.95 379.93 228.76 386.46 232.82C392.99 236.88 391.7 236.57 388.89 237.53C386.08 238.49 373.81 237.9 361.96 234.63C350.11 231.36 352.36 232.1 333.38 233.02C323.24 233.51 271.29 233.9 203.9 230.09C136.51 226.28 116.24 222.48 113.9 222.26C111.56 222.04 108.49 221.82 111.56 224.26C114.63 226.7 115.22 228.32 111.34 227.26C107.46 226.2 101.94 224.6 98.45 221.47C98.45 221.47 78.18 217.93 60.34 213.47C60.34 213.47 70.08 224.03 89.28 228.05C108.48 232.07 122.55 235.79 144.33 237.23C166.11 238.67 195.77 241.84 240.51 242.96C240.51 242.96 222.18 235.25 217.51 233.54C239.51 235.13 269.78 236.69 280.1 236.63C290.42 236.57 307.61 236.57 327.38 241.63C347.15 246.69 360.58 251.72 376.99 252.03C393.4 252.34 402.43 252.94 411.65 252.53C420.87 252.12 422.57 251.23 423.41 249.28C424.25 247.33 424.02 244.75 418.67 241.95C413.32 239.15 409.67 237.33 403.79 236.42C403.79 236.42 405.43 243.17 404.52 244.42C403.13 246.42 402.08 246.96 396.72 247.74C389.6 248.74 378.63 246.51 368.03 244.65C357.43 242.79 342.55 237.83 332.29 236.28C338.325 235.927 344.381 236.263 350.34 237.28C359.66 238.83 372.06 241.65 378.14 242.52C384.22 243.39 391.65 245.31 395.34 244.52C399.03 243.73 401.28 244.2 400.14 239.34C399 234.48 397.86 233.5 397.86 233.5C397.86 233.5 401.67 232.29 411.02 234.95C420.37 237.61 423.15 239.32 425.4 241.23C427.65 243.14 436.07 247.23 445.66 248.23C454.95 249.23 462.99 249.66 463.48 249.68C460.397 248.044 457.202 246.627 453.92 245.44Z" fill="black"/>
<path d="M212.99 244.85C198.41 244.11 138.07 240.39 118.22 237.85C98.37 235.31 81.14 232.1 67.84 226.06C54.54 220.02 52.06 216.07 47.14 209.87C40.2 207.87 32.68 205.61 25.98 203.58C37.14 214.81 43.8 224.15 61.5 229.72C79.2 235.29 83.55 237.72 115.14 240.57C146.73 243.42 229.3 250.01 258.46 249.33L248.96 245.72C248.96 245.72 227.57 245.59 212.99 244.85Z" fill="black"/>
<path d="M425.86 244.6C425.86 244.6 432.86 250.9 438.3 252.95C438.3 252.95 428.36 253.24 423.13 254.47C423.14 254.47 427.51 252.72 425.86 244.6Z" fill="black"/>
<path d="M240.53 237.48C240.53 237.48 254.1 243.8 263.6 246C273.993 248.587 284.627 250.092 295.33 250.49C308.42 250.98 317.63 251.36 336.24 251.1C336.24 251.1 322.18 247.1 309.34 244.46C296.5 241.82 289.54 240.72 281.64 241.52C283.868 244.212 286.905 246.113 290.3 246.94C283.699 246.916 277.12 246.172 270.68 244.72C258.86 242.27 240.53 237.48 240.53 237.48Z" fill="black"/>
<path d="M456.66 218.45C456.546 218.495 456.436 218.548 456.33 218.61C459.11 219.61 461.78 219.86 461.83 220.9C461.88 221.94 460.69 223.22 458.35 223.68C456.01 224.14 453.76 225.18 449.2 223.94C448.901 224.103 448.586 224.234 448.26 224.33C447 224.71 442.26 225.6 436.97 226.33C436.97 226.33 450.17 234.33 456.86 233.33C463.55 232.33 469.06 228.68 470.3 226.19C471.54 223.7 472.93 219.38 473.89 217.39C470.831 218.162 467.662 218.409 464.52 218.12C460.26 219.38 458.19 217.88 456.66 218.45Z" fill="black"/>
<path d="M497.75 231.72C497.12 227.99 494.69 226.95 494.69 226.95C494.09 230.11 493.99 232.15 493.22 234.43C492.45 236.71 490.8 239.67 487.71 244.54C484.62 249.41 484.86 255.34 487.65 257.42C487.65 257.42 486.77 253.42 488.81 254.28C490.85 255.14 497.29 261.54 497.29 261.54L500.29 261.37C500.928 259.913 501.788 258.563 502.84 257.37C500.512 254.127 498.359 250.763 496.39 247.29C499.64 239.72 498.39 235.42 497.75 231.72Z" fill="black"/>
<path d="M514.26 235.45C515.08 239.61 516.26 249.3 516.26 249.3C516.994 249.715 517.845 249.877 518.68 249.76C518.586 246.805 518.282 243.861 517.77 240.95C516.94 235.97 514.26 235.45 514.26 235.45Z" fill="black"/>
<path d="M527.4 244.89C525.933 245.064 524.569 245.73 523.53 246.78L523.74 247.78C525.378 248.77 526.936 249.887 528.4 251.12C531.295 250.405 534.292 250.192 537.26 250.49C538.1 250.57 538.84 250.66 539.51 250.75C539.51 250.75 529.74 244.72 527.4 244.89Z" fill="black"/>
<path d="M521.21 236.92C531.08 235.07 532.21 230.1 531.6 226.5C530.455 226.648 529.304 226.738 528.15 226.77C527.81 235.12 522 236.72 521.21 236.92Z" fill="black"/>
<path d="M539.85 229.44C537.568 233.709 534.347 237.406 530.43 240.25C530.43 240.25 538.33 244.64 549.75 250.18L549.35 248.18C549.35 248.18 556.76 248.11 566.13 248.05C559.75 242.72 539.85 229.44 539.85 229.44Z" fill="black"/>
<path d="M570.91 247.78L571.21 248C579.72 248 588.96 247.93 595.49 248C583.87 238.67 574.06 233 566.33 228.06L542.06 228.5C548.45 232.46 566.53 244.32 570.91 247.78Z" fill="black"/>
<path d="M624.5 248.01C610.77 236.85 606.73 234.48 593.79 227.5L570.02 227.95C590.67 240.21 589.47 240.29 598.88 247.95H600.67C606.56 248.13 616.19 248.09 624.5 248.01Z" fill="black"/>
<path d="M599 227.4C615.68 237.08 618.62 239.4 628.42 247.98L637.98 247.87C639.5 246.1 640.05 243.87 638.43 238.78C636.81 233.69 635.14 230.78 622.82 226.6C621.05 226.78 619.49 226.9 618.24 226.95C615.59 227.04 608.22 227.21 599 227.4Z" fill="black"/>
<path d="M263.46 126.28C260.51 125.55 253.26 124.08 245.63 122.63C214.2 119.63 184.63 116.77 182.96 116.8C181.1 116.8 180.24 114.8 177.56 114.74C174.88 114.68 138.56 111.26 118.31 109.03C98.06 106.8 65.26 100.34 65.26 100.34L62.15 102.57L60.09 99.7C60.09 99.7 51.95 98.07 50.48 98.04C50.09 98.0086 49.6977 98.0581 49.3277 98.1854C48.9577 98.3128 48.6181 98.5152 48.33 98.78C48.33 98.78 42.48 96.91 35.68 94.84C38.68 99.7 41.45 105.43 49.75 109.1C58.82 113.1 62.84 112.21 67.75 111.94C72.66 111.67 77.63 111.83 81.54 112.94C85.45 114.05 87.54 115.02 88.45 115.94C89.36 116.86 87.6 118.77 85.2 116.81C82.8 114.85 77.67 114.29 75.2 114.51C72.73 114.73 68.96 116.21 75.4 117.35C81.84 118.49 105.58 124.66 126.79 123.68C148 122.7 167.41 119.77 182.11 119.92C196.81 120.07 201.8 119.8 213.55 121.04C225.3 122.28 237.8 124.35 240.99 126.97C244.18 129.59 242.73 129.64 247.21 129.97C251.69 130.3 261.56 131.23 265.21 130.56C268.86 129.89 270.26 127.97 263.46 126.28Z" fill="black"/>
<path d="M407.43 162.31C407.12 162.125 406.766 162.027 406.405 162.027C406.044 162.027 405.69 162.125 405.38 162.31C411.59 164.17 415.22 162.74 413.03 158.69C410.84 154.64 402.67 151.4 394.48 148.47C386.29 145.54 377.06 141.02 363.09 140.76C362.984 140.756 362.88 140.731 362.784 140.686C362.688 140.642 362.601 140.578 362.53 140.5L360.53 138.14C360.376 137.963 360.183 137.823 359.966 137.733C359.749 137.643 359.514 137.604 359.28 137.62C357.55 137.75 353.14 138.03 349.68 137.96C349.396 137.952 349.118 137.868 348.877 137.717C348.636 137.566 348.44 137.353 348.31 137.1C347.074 134.932 345.291 133.125 343.14 131.86C341.613 131.099 339.977 130.58 338.29 130.32H338.19C332.46 129.89 322.36 129.12 310.5 128.18H310.43C304.398 128.125 298.369 128.459 292.38 129.18C274.62 131.57 271.22 132.96 266.22 134.54C261.22 136.12 259.86 136.72 252.79 136.92C250.161 137.078 247.523 137.038 244.9 136.8C243.04 136.8 242.18 136.7 240.45 133.66C238.72 130.62 235.04 127.35 224.45 125.03C213.86 122.71 189.93 122.42 177.03 123.23C162.72 124.13 140.96 126.04 149.29 127.23C152.39 127.67 223.9 136.03 232.37 136.91C240.84 137.79 252.72 138.66 264.23 137.74C275.74 136.82 287.51 136.55 298.1 133.74C308.69 130.93 318.42 130.04 322.76 130.14C327.1 130.24 335.16 130.42 338.56 134.27C341.96 138.12 338.75 137.87 339.83 138.85C340.91 139.83 345.72 138.99 352.61 141.05C359.5 143.11 372.99 144.84 394.61 158.67C394.732 158.75 394.875 158.794 395.021 158.795C395.167 158.796 395.31 158.755 395.433 158.677C395.557 158.599 395.655 158.487 395.717 158.355C395.778 158.222 395.8 158.075 395.78 157.93C395.73 157.541 395.626 157.16 395.47 156.8C395.406 156.65 395.392 156.484 395.43 156.325C395.468 156.167 395.555 156.025 395.68 155.92C396.478 155.219 397.429 154.715 398.458 154.45C399.486 154.184 400.562 154.164 401.6 154.39C405.6 155.22 411.07 157.67 411.6 160C412.13 162.33 409.31 163.21 407.43 162.31Z" fill="black"/>
<path d="M347.16 146.7C350.16 147.05 343.56 142.25 330.6 141.2C327.92 140.99 328.67 139.05 329.97 138.41C331.27 137.77 332.31 133.31 326.15 132.67C319.99 132.03 316.74 132.48 310.84 135.13C304.94 137.78 297.54 138.44 289.79 139.53C286.69 139.97 283.21 140.75 289.42 141.26" fill="black"/>
<path d="M420.15 138.06C416.52 140.92 424.01 138.38 429.91 134.52C435.81 130.66 437.61 126.15 441.34 123.88C444.718 121.819 448.405 120.313 452.26 119.42C455.61 118.68 458.7 113.73 453.15 115.01C456.97 115.89 454.3 117.42 451.21 118.01C447.062 118.94 443.065 120.451 439.34 122.5C439.06 121.539 438.606 120.637 438 119.84C435.49 126.97 423.78 135.2 420.15 138.06Z" fill="black"/>
<path d="M368.19 130.37C373.19 137.64 382.54 145.94 398.19 143.68C401.176 145.508 404.364 146.985 407.69 148.08C413.69 150.14 416.14 149.17 415.23 144.54C414.616 141.631 413.456 138.866 411.81 136.39C411.81 136.39 417.44 141.51 422.33 138.28C427.22 135.05 436.53 126.71 438.16 120.07C437.806 119.439 437.229 118.964 436.542 118.738C435.855 118.513 435.109 118.552 434.45 118.85C432.61 119.64 429.17 121.76 425.77 123.66C423.58 128.66 422.6 134.18 405.83 131.81C407.183 133.712 408.198 135.833 408.83 138.08C410.06 142.08 409.18 149.82 393.91 130.41C392.36 130.56 390.66 130.8 389.03 131.07L393.08 137.31C393.08 137.31 381.68 139.62 376.67 130.43C376.35 130.315 376.009 130.267 375.67 130.29C375.26 130.37 372.13 130.38 368.19 130.37Z" fill="black"/>
<path d="M506.85 142.05C505.85 139.67 503.78 139.42 502.85 139.96C502.725 140.043 502.585 140.1 502.438 140.128C502.291 140.155 502.14 140.153 501.993 140.122C501.847 140.09 501.708 140.029 501.586 139.943C501.463 139.857 501.359 139.747 501.28 139.62C500.12 137.72 497.87 134.1 497.43 133.62C496.99 133.14 497.54 132.07 497.87 131.5C497.953 131.342 497.997 131.168 498 130.99C497.78 130.54 497.05 129.06 495.9 127.04C495.9 127.56 495.8 132.93 495.78 134.46C495.768 134.721 495.854 134.978 496.02 135.18C496.79 136.18 499.16 139.18 499.69 141.18C500.32 143.55 500.49 146.18 496.12 141.83C491.75 137.48 491.42 137.64 491.04 134.12C490.66 130.6 488.97 131.87 488.51 132.72C488.05 133.57 487.62 135.33 484.24 130.72C484.067 131.169 483.788 131.569 483.428 131.887C483.068 132.206 482.636 132.433 482.17 132.55C480.543 130.223 478.741 128.024 476.78 125.97C476.655 126.151 476.588 126.365 476.588 126.585C476.588 126.805 476.655 127.019 476.78 127.2C481.78 134.96 484.23 139.97 484.32 147.54C484.42 156.14 483.69 164.48 486.7 167.48C486.293 166.489 485.998 165.456 485.82 164.4C485.28 161.03 485.43 160.4 486.02 161.07C485.7 159.51 485.65 158.28 486.38 158.22C488.73 158.01 492.29 160.51 492.24 154.89C492.19 149.27 491.42 148.19 490.24 146.41C489.06 144.63 488.51 142.59 492.24 144.73C495.97 146.87 498.54 147.3 498.79 151.53C498.97 154.53 499.09 156.04 499.15 156.67C499.167 156.798 499.204 156.923 499.26 157.04L504.37 156.88L503.96 156.76C504 156.586 504 156.404 503.96 156.23L502.75 151.5C502.668 151.163 502.691 150.809 502.816 150.485C502.941 150.162 503.163 149.884 503.45 149.69C505.26 148.42 508.95 146.96 506.85 142.05Z" fill="black"/>
<path d="M518.91 142.17C517.72 138.97 514.55 140.12 513.34 140.46C513.072 140.531 512.788 140.514 512.531 140.412C512.273 140.309 512.055 140.126 511.91 139.89L507.64 133.2L500.88 132.62C501.58 134.17 502.385 135.67 503.29 137.11C503.29 137.11 507.46 136.65 509.51 140.11C511.42 143.37 511.51 147.72 507.51 150.11C507.265 150.254 507.078 150.478 506.98 150.744C506.881 151.01 506.878 151.302 506.97 151.57C507.554 153.219 507.996 154.915 508.29 156.64L515.57 157.24L514.8 150.97C514.77 150.63 514.828 150.287 514.968 149.976C515.108 149.664 515.326 149.394 515.6 149.19C517.26 148.07 520.14 145.5 518.91 142.17Z" fill="black"/>
<path d="M606.43 139.5C601.01 134 589.66 138.23 588.34 138.79C587.02 139.35 585.15 141.43 579.19 140.05C576.132 139.292 573.019 138.773 569.88 138.5C568.8 138.35 567.46 136.96 566.33 135.65C565.494 136.021 564.594 136.228 563.68 136.26L511.68 133.65L514.23 137.56C515.704 137.245 517.243 137.478 518.558 138.214C519.874 138.95 520.877 140.139 521.38 141.56C523.09 145.56 520.02 148.34 518.62 149.5C518.395 149.683 518.224 149.924 518.127 150.198C518.03 150.471 518.011 150.766 518.07 151.05L519.33 156.88L602.84 154.15C605.355 152.144 607.746 149.986 610 147.69C611.85 145.5 611.84 145.02 606.43 139.5ZM547.7 145.93L543.53 148.81C542.69 149.4 542.26 149.59 541.66 148.76L538.87 144.58C538.27 143.75 538.02 143.01 538.87 142.41L543.46 139.53C543.612 139.381 543.795 139.269 543.997 139.202C544.199 139.135 544.413 139.115 544.624 139.144C544.834 139.173 545.035 139.25 545.211 139.369C545.388 139.488 545.534 139.646 545.64 139.83L548.14 143.89C548.73 144.74 548.53 145.35 547.7 145.95V145.93ZM556.7 147.03C556.24 147.314 555.707 147.456 555.167 147.437C554.627 147.418 554.105 147.239 553.667 146.923C553.228 146.607 552.894 146.167 552.705 145.661C552.517 145.155 552.483 144.604 552.607 144.078C552.732 143.552 553.01 143.075 553.406 142.708C553.802 142.34 554.298 142.098 554.832 142.013C555.365 141.927 555.912 142.002 556.403 142.228C556.894 142.453 557.307 142.82 557.59 143.28C557.781 143.584 557.91 143.924 557.97 144.278C558.03 144.633 558.019 144.995 557.938 145.346C557.857 145.696 557.708 146.027 557.499 146.319C557.29 146.612 557.025 146.86 556.72 147.05L556.7 147.03Z" fill="black"/>
<rect x="0.5" y="0.5" width="1013" height="325" stroke="black"/>
</svg>
