<svg width="1014" height="326" viewBox="0 0 1014 326" fill="none" xmlns="http://www.w3.org/2000/svg">
<g clip-path="url(#clip0_1_391)">
<path d="M776 231.78C773.852 230.78 771.836 229.517 770 228.02L762.23 221.78H751.47C750.579 221.767 749.691 221.666 748.82 221.48L748.42 221.4L740.8 220.17L742.29 196.35L740.76 194.13C739.022 191.628 737.413 189.037 735.94 186.37L732.48 189.11L685 141.78L696 130.89L698.61 128.04L699.07 127.53C699.46 127.1 699.79 126.74 700.13 126.39L705.65 120.88L716.54 109.97L716.9 109.5L717.6 108.61L718.14 107.95L718.8 107.41L719.54 106.82C719.79 106.62 720.17 106.33 720.29 106.21C721.75 104.783 723.2 103.343 724.64 101.89L727.05 99.47C727.39 99.14 727.74 98.81 728.05 98.47L733.21 93.7L735.59 95.26C736.31 93.95 737.08 92.62 737.88 91.26C731.53 89.08 727.04 84.2 725.1 77.26C724.72 75.87 724.42 74.55 724.1 73.15V73.05L723 72.68C719.152 71.3821 715.694 69.1362 712.943 66.1494C710.192 63.1626 708.238 59.5311 707.26 55.59C706.68 53.48 706.13 51.36 705.59 49.24L705.02 47.03C704.854 46.375 704.753 45.705 704.72 45.03V44.75L703.37 29.23L718.73 37.36L721.73 38.93C729.497 43.1457 737.716 46.4701 746.23 48.84C753.207 50.6409 760.296 51.9772 767.45 52.84C769.06 53.07 770.82 53.28 772.8 53.49L796.11 30.87L797.71 28.59L797.62 26.85L799.68 24.32C801.618 21.8743 804.294 20.1204 807.31 19.32C807.714 18.719 808.169 18.1536 808.67 17.63C809.401 16.8751 810.18 16.167 811 15.51L811.6 15L816.13 11L819.33 12.78L820.86 13.03C822.831 13.2123 824.682 14.0585 826.11 15.43L826.59 15.86L826.67 15.94C827.862 16.9318 828.924 18.0709 829.83 19.33C832.786 20.0988 835.428 21.7696 837.39 24.11L839.72 26.78L839.59 28.59L841.02 30.59L840.92 30.98L864.25 53.71C866.06 53.5 867.72 53.28 869.34 53.03C874.8 52.18 880.99 51.23 886.82 49.94C893.876 48.4669 900.741 46.1921 907.28 43.16C909.9 41.91 912.58 40.56 915.17 39.26L919.31 37.17C919.837 36.9162 920.378 36.6925 920.93 36.5L921.37 36.34L935.86 30.84L932.69 46.04C932.59 46.49 932.52 46.92 932.44 47.34V47.44C932.221 48.9237 931.886 50.3882 931.44 51.82C930.28 55.22 928.98 58.76 927.44 62.64C926.561 64.8549 925.178 66.8343 923.401 68.421C921.623 70.0076 919.5 71.1578 917.2 71.78C916.07 72.14 914.94 72.48 913.82 72.78C912.55 78.12 910.5 83.91 904.92 88.34C903.396 89.5598 901.714 90.5688 899.92 91.34C900.65 92.54 901.37 93.78 902.06 95.03L903.99 93.68L912.72 102.38C913.66 103.31 914.61 104.26 915.56 105.23C915.961 105.332 916.355 105.459 916.74 105.61L919.15 106.36L920.68 108.51C921.518 109.562 922.109 110.789 922.41 112.1C928.27 117.92 934.103 123.747 939.91 129.58L944.4 134.07C944.78 134.45 945.14 134.84 945.53 135.27L945.93 135.71L951.02 141.21L946.17 146.96L945.92 147.27C945.65 147.6 945.26 148.07 944.75 148.59L942.66 150.68L941.85 151.49C941.985 152.33 942.049 153.179 942.04 154.03C942.083 156.827 941.146 159.551 939.393 161.731C937.641 163.912 935.181 165.411 932.44 165.97C931.003 166.32 929.529 166.498 928.05 166.5H926.25L908.15 184.6L904.15 182.09C901.42 187.7 898.52 192.43 896.15 195.09L895.84 195.43C895.91 196.37 895.98 197.43 896.06 198.43C897.06 212.43 896.6 213.9 896.23 215.2L894.49 221.4H866.16C865.988 223.089 865.677 224.762 865.23 226.4L866.34 227.4L864.18 229.54L864 230.01C863.81 230.49 863.58 230.96 863.35 231.43L863.25 231.64C863.11 231.93 862.94 232.23 862.76 232.53L859.33 238.53L856.16 237.53L818.77 274.59L776 231.78Z" stroke="#FF0000" stroke-miterlimit="10"/>
<path d="M657.54 32.94C654.44 33.83 627.62 38.42 618.27 38.76C608.92 39.1 540.33 40.3 540.33 40.3L539.92 36.83C539.92 36.83 531.82 38.7 527.56 38.58C523.318 38.4599 519.119 37.691 515.11 36.3L514.74 30.3L512.06 30.56C512.06 30.56 512.06 23.56 511.17 19.81L508.52 20.19C508.52 20.19 505.27 6.53 500.88 0.809998L490.51 14.05C491.922 16.4436 492.828 19.1019 493.17 21.86C493.86 26.78 491.53 32.97 489.92 34.52C489.92 34.52 489.09 32.36 487.86 29.6C487.86 29.6 485.38 32.95 484.86 35.66L480.73 36.88C480.73 36.88 480.73 27.73 482.64 24.35C484.55 20.97 485.17 19.89 483 18.54C480.83 17.19 479.58 18.54 476.71 21.28C473.84 24.02 468.88 28.69 464.62 29.94C460.36 31.19 458.29 29.69 456.76 30.26C455.23 30.83 451.07 35.34 448.36 36.14C445.65 36.94 426.75 40.14 421.71 39.48L421.62 41.13C421.62 41.13 401.8 42.43 387.12 40C387.12 40 381.97 39.51 380.63 39.64C379.29 39.77 380 40.58 386.53 44.64C393.06 48.7 391.77 48.39 388.96 49.35C386.15 50.31 373.88 49.72 362.03 46.45C350.18 43.18 352.43 43.92 333.45 44.84C323.31 45.33 271.36 45.72 203.97 41.91C136.58 38.1 116.31 34.3 113.97 34.08C111.63 33.86 108.56 33.64 111.63 36.08C114.7 38.52 115.29 40.14 111.41 39.08C107.53 38.02 102.01 36.42 98.52 33.29C98.52 33.29 71.66 28.6 52.57 23.21C33.48 17.82 6.03003 9.26 6.03003 9.26C6.03003 9.26 26.39 35.02 45.17 43.07C63.95 51.12 79.69 55.39 110.58 59.01C141.47 62.63 215.87 68.07 272.73 69.01C329.59 69.95 356.07 70.64 380.56 71.56C405.05 72.48 451.89 74.56 458.37 78.37L454.76 68.33H456.39C456.39 68.33 490.18 92.95 513.39 89.61L516.75 92.09C516.75 92.09 514.09 83.46 514.81 79.5C515.53 75.54 515.45 77.19 515.59 73.75C517.154 74.2494 518.743 74.6666 520.35 75L519.78 72.11C521.833 72.69 524.007 72.69 526.06 72.11L524.53 64.35C528.53 62.5975 532.915 61.9086 537.26 62.35C544.51 63.1 544.79 63.87 549.92 62.86L549.35 59.97C549.35 59.97 588.61 59.62 600.67 59.84C612.73 60.06 640.51 59.65 640.51 59.65L640.17 61.35L645.8 60.1C647.545 60.9107 649.502 61.1487 651.39 60.78C654.55 60.16 654.39 59.63 658.39 58.86C662.39 58.09 661.21 55.86 661.57 50.72C661.93 45.58 660.41 42.07 663.57 39.27C666.73 36.47 666.7 37.15 667.18 35.42C667.66 33.69 660.65 32.06 657.54 32.94ZM499.86 79.59C499.86 79.59 499.86 79.43 499.86 79.16C498.62 78.56 488.74 70.36 487.77 69.23C487.77 69.23 486.89 65.23 488.93 66.09C490.97 66.95 497.41 73.35 497.41 73.35L500.41 73.18C499.916 75.1391 499.757 77.1678 499.94 79.18C500.97 79.73 499.86 79.59 499.86 79.59Z" stroke="#FF0000" stroke-miterlimit="10"/>
<path d="M657.51 221.13C654.41 222.02 627.59 226.61 618.24 226.95C608.89 227.29 540.3 228.49 540.3 228.49L539.89 225.02C539.89 225.02 531.79 226.89 527.53 226.77C523.288 226.65 519.089 225.881 515.08 224.49L514.71 218.49L512.03 218.75C512.03 218.75 512.03 211.75 511.14 208L508.49 208.38C508.49 208.38 505.24 194.72 500.85 189L490.48 202.24C491.892 204.634 492.798 207.292 493.14 210.05C493.83 214.97 491.5 221.16 489.89 222.71C489.89 222.71 489.06 220.55 487.83 217.79C487.83 217.79 485.35 221.14 484.83 223.85L480.7 225.07C480.7 225.07 480.7 215.92 482.61 212.54C484.52 209.16 485.14 208.08 482.97 206.73C480.8 205.38 479.55 206.73 476.68 209.47C473.81 212.21 468.85 216.88 464.59 218.13C460.33 219.38 458.26 217.88 456.73 218.45C455.2 219.02 451.04 223.53 448.33 224.33C445.62 225.13 426.72 228.33 421.68 227.67L421.59 229.32C421.59 229.32 401.77 230.62 387.09 228.19C387.09 228.19 381.94 227.7 380.6 227.83C379.26 227.96 379.97 228.77 386.5 232.83C393.03 236.89 391.74 236.58 388.93 237.54C386.12 238.5 373.85 237.91 362 234.64C350.15 231.37 352.4 232.11 333.42 233.03C323.28 233.52 271.33 233.91 203.94 230.1C136.55 226.29 116.28 222.49 113.94 222.27C111.6 222.05 108.53 221.83 111.6 224.27C114.67 226.71 115.26 228.33 111.38 227.27C107.5 226.21 101.98 224.61 98.49 221.48C98.49 221.48 71.63 216.79 52.54 211.4C33.45 206.01 6 197.45 6 197.45C6 197.45 26.36 223.21 45.14 231.26C63.92 239.31 79.66 243.58 110.55 247.2C141.44 250.82 215.84 256.26 272.7 257.2C329.56 258.14 356.04 258.83 380.53 259.75C405.02 260.67 451.86 262.75 458.34 266.56L454.73 256.52H456.36C456.36 256.52 490.15 281.14 513.36 277.8L516.72 280.28C516.72 280.28 514.06 271.65 514.78 267.69C515.5 263.73 515.42 265.38 515.56 261.94C517.124 262.439 518.713 262.857 520.32 263.19L519.75 260.3C521.803 260.88 523.977 260.88 526.03 260.3L524.5 252.54C528.5 250.788 532.885 250.099 537.23 250.54C544.48 251.29 544.76 252.06 549.89 251.05L549.32 248.16C549.32 248.16 588.58 247.81 600.64 248.03C612.7 248.25 640.48 247.84 640.48 247.84L640.14 249.54L645.77 248.29C647.515 249.101 649.472 249.339 651.36 248.97C654.52 248.35 654.36 247.82 658.36 247.05C662.36 246.28 661.18 244.05 661.54 238.91C661.9 233.77 660.38 230.26 663.54 227.46C666.7 224.66 666.67 225.34 667.15 223.61C667.63 221.88 660.62 220.25 657.51 221.13ZM499.83 267.78C499.83 267.78 499.83 267.62 499.83 267.35C498.59 266.75 488.71 258.55 487.74 257.42C487.74 257.42 486.86 253.42 488.9 254.28C490.94 255.14 497.38 261.54 497.38 261.54L500.38 261.37C499.886 263.329 499.727 265.358 499.91 267.37C500.94 267.92 499.83 267.78 499.83 267.78Z" stroke="#FF0000" stroke-miterlimit="10"/>
<path d="M637.26 140.74L642.36 127.5C642.36 127.5 626.5 127.65 619.92 129.91C613.34 132.17 608.36 131.91 606.43 131.54C604.5 131.17 598.19 132.59 589.89 133.26C581.59 133.93 569.11 134.33 569.11 134.33C569.11 134.33 565.56 136.33 563.68 136.27L511.68 133.66C511.68 133.66 510.68 131.03 508.91 131.32C508.691 131.332 508.479 131.395 508.288 131.502C508.097 131.61 507.934 131.759 507.81 131.94C507.686 132.121 507.606 132.327 507.574 132.544C507.543 132.761 507.562 132.982 507.63 133.19L500.36 132.69C500.36 132.69 498.77 131.08 498.12 131.18C495.843 126.56 493.127 122.17 490.01 118.07C490.01 118.07 485.01 120.88 483.71 123.75C482.41 126.62 486.85 130.85 482.19 132.54C482.19 132.54 475.01 121.94 468.44 120.06C468.44 120.06 469.22 112.46 471.65 111C474.08 109.54 479.45 108.82 482 108.94C484.55 109.06 486.16 109.88 483.2 112.22C480.24 114.56 480.73 115.15 487.52 114.22C494.31 113.29 510.85 114.07 516 114.58C521.15 115.09 521.83 114.31 515.94 110.05C510.05 105.79 490.41 99.73 478.49 99.5C466.57 99.27 449.58 105.61 439.49 114.84C439.49 114.84 447.9 114.03 452.57 114.84C457.24 115.65 454.44 117.34 451.21 117.99C447.061 118.926 443.064 120.445 439.34 122.5C439.34 122.5 437.98 117.38 434.48 118.87C430.98 120.36 421.72 126.66 417.93 127.14C414.14 127.62 400.25 130.14 395.74 130.3C391.23 130.46 384.14 132.03 382.32 132.3C380.5 132.57 377.16 130.06 375.72 130.3C374.28 130.54 350.62 130.2 349.03 130.3C347.114 130.65 345.166 130.785 343.22 130.7C343.22 130.7 289.73 126.7 255.05 123.5C220.37 120.3 184.82 116.76 182.96 116.79C181.1 116.82 180.24 114.79 177.56 114.73C174.88 114.67 138.56 111.25 118.31 109.02C98.06 106.79 65.26 100.34 65.26 100.34L62.15 102.57L60.09 99.7C60.09 99.7 51.95 98.07 50.48 98.04C50.09 98.0086 49.6977 98.0581 49.3277 98.1854C48.9577 98.3128 48.6181 98.5152 48.33 98.78C48.33 98.78 25.82 91.59 17.79 89.78C9.76 87.97 6 87 6 87C23.51 115.42 37.72 120.75 60 125.58C82.28 130.41 94.51 133.52 137.88 137.63C181.25 141.74 231.05 146.83 285.45 151.44C339.85 156.05 392.45 159.35 394.09 159.75C395.73 160.15 396.42 158.44 395.28 156.36C396.078 155.507 397.083 154.875 398.197 154.524C399.312 154.174 400.497 154.117 401.64 154.36C405.64 155.19 411.11 157.64 411.64 159.97C412.17 162.3 409.35 163.14 407.47 162.24C405.59 161.34 403.95 162.8 405.76 164.91C407.57 167.02 415 175.04 429.85 179.46C444.7 183.88 455 184.77 461.72 180.89C461.72 180.89 443.4 179.02 437.55 170.89C431.7 162.76 432.3 158.12 435.12 156.59C437.94 155.06 446.46 156.51 444.48 164.97L450.53 166.97C450.528 167.726 450.811 168.455 451.322 169.011C451.834 169.567 452.537 169.91 453.29 169.97C456.17 170.44 456.73 167.28 456.73 167.28C456.73 167.28 462.47 167.28 464.86 165.58L472.58 167.94C472.58 167.94 477.75 176.35 484.26 178.5C490.77 180.65 492.06 181.33 495.07 180.18C498.08 179.03 497.36 178.61 494.49 176.53C491.62 174.45 486.83 170.42 485.87 164.44C484.91 158.46 486.13 161.06 488.15 164.44C490.17 167.82 490.15 169.59 493.32 172.55C493.32 172.55 497.03 172.36 498.17 165.37C499.31 158.38 499.24 157.05 499.24 157.05L504.42 156.89C504.42 156.89 504.66 159.2 505.99 159.17C507.69 159.17 507.87 156.74 507.87 156.74L515.65 157.25C515.662 157.726 515.836 158.184 516.143 158.547C516.45 158.911 516.873 159.159 517.34 159.25C518.98 159.52 519.34 156.87 519.34 156.87L602.85 154.14L605.03 155.25L627.22 154.63C627.22 154.63 635.39 147.31 644.22 144.15C644.26 144.16 642.55 142.03 637.26 140.74ZM424.8 148C422.65 149.31 417.99 149.76 415.87 145.93L422.18 142.63C422.18 142.63 426.94 146.69 424.8 148ZM451.26 149.21C452.2 152.05 454.26 154.01 454.82 155.01C452.536 154.44 450.453 153.25 448.802 151.572C447.15 149.894 445.994 147.793 445.46 145.5C445.432 145.418 445.409 145.335 445.39 145.25C445.39 145.12 445.33 144.99 445.31 144.86C445.167 143.853 445.325 142.827 445.763 141.909C446.202 140.992 446.901 140.224 447.775 139.703C448.648 139.182 449.655 138.931 450.671 138.98C451.687 139.03 452.665 139.379 453.483 139.983C454.301 140.587 454.923 141.419 455.269 142.375C455.616 143.331 455.673 144.368 455.432 145.356C455.191 146.344 454.664 147.239 453.916 147.928C453.169 148.617 452.234 149.07 451.23 149.23L451.26 149.21ZM455.15 134.86C454.265 134.078 453.171 133.571 452.002 133.402C450.833 133.233 449.64 133.41 448.57 133.91C450.211 132.147 452.319 130.885 454.648 130.27C456.977 129.656 459.433 129.715 461.73 130.44C462.685 130.707 463.545 131.241 464.205 131.981C464.866 132.721 465.301 133.634 465.459 134.614C465.617 135.593 465.491 136.597 465.096 137.507C464.7 138.417 464.053 139.194 463.229 139.747C462.406 140.3 461.441 140.606 460.45 140.628C459.458 140.65 458.481 140.387 457.634 139.871C456.787 139.354 456.105 138.606 455.671 137.714C455.236 136.823 455.066 135.825 455.18 134.84L455.15 134.86ZM465.72 152.71C465.082 153.18 464.342 153.492 463.56 153.62C462.685 153.763 461.788 153.677 460.956 153.373C460.124 153.068 459.384 152.554 458.808 151.88C458.232 151.207 457.84 150.396 457.668 149.526C457.496 148.657 457.552 147.758 457.828 146.916C458.105 146.074 458.594 145.317 459.248 144.719C459.902 144.121 460.699 143.702 461.563 143.501C462.426 143.3 463.327 143.326 464.177 143.574C465.028 143.823 465.8 144.286 466.42 144.92C468.42 143.03 469.33 139.92 469.33 136.92C469.91 138.075 470.308 139.313 470.51 140.59C470.873 142.855 470.619 145.176 469.775 147.309C468.93 149.442 467.526 151.308 465.71 152.71H465.72Z" stroke="#FF0000" stroke-miterlimit="10"/>
</g>
<defs>
<clipPath id="clip0_1_391">
<rect width="1014" height="326" fill="white"/>
</clipPath>
</defs>
</svg>
